<?xml version="1.0" encoding="utf-8"?>
<!-- Generator: Adobe Illustrator 26.4.0, SVG Export Plug-In . SVG Version: 6.00 Build 0)  -->
<svg version="1.2" baseProfile="tiny" id="g-220727-the-otter-turf-wars-rgb-Artboard_1-interactions-img" xmlns="http://www.w3.org/2000/svg" xmlns:xlink="http://www.w3.org/1999/xlink"
	 x="0px" y="0px" viewBox="0 0 600 553.239" overflow="visible" xml:space="preserve">
<g>
	<path id="territory" style="opacity:0.3;" fill="#FCD206" d="M222.759,38.841l116.114,2.407l-14.439,48.732l8.423,19.854l22.26-20.455
		l25.268-2.407l24.667,16.846l17.447-1.805l-1.203,9.024h20.455l6.618,29.48l30.683,20.455l57.756-13.236l27.675,10.829
		l-64.976,33.691l-8.423,28.878l-102.277,21.659l13.837,36.098l-10.829,30.081l10.228,34.293l-54.147,41.512l-19.854,1.203
		l-22.26-13.837l-13.837,4.813l-54.748,1.203l-24.065-19.854l-17.447-3.61l-22.862-10.228l8.423-21.057l2.707-15.943h66.48
		l8.423,9.024l12.935-2.407l3.309-6.618l-1.203-23.764l-12.033-10.228l7.22-22.862l21.659-26.472l34.594-22.711l12.484-11.13
		l3.159-9.175l-24.065,4.512l-41.813-3.008l-13.236-49.935l8.423-39.106l-47.829-34.293L222.759,38.841z"/>
	<polyline id="singapore-river-flow_00000062888374489425382880000008461278482158672567_" fill="none" stroke="#9FD1E1" points="
		363.777,269.378 361.672,266.445 364.604,261.557 368.891,256.819 369.192,253.961 368.665,250.126 368.816,249.073 
		369.869,247.719 369.944,246.591 366.184,242.154 364.905,238.62 365.206,236.514 366.635,232.904 366.71,230.949 365.733,228.542 
		360.393,220.571 360.092,219.443 359.942,215.307 363.251,224.933 360.393,220.571 360.092,219.443 359.491,201.544 
		358.964,197.935 353.55,192.445 347.157,182.142 347.157,176.727 349.188,172.892 350.316,167.402 348.661,155.745 
		347.157,152.963 345.653,151.384 326.551,137.697 325.499,136.193 325.047,132.357 323.844,120.099 322.265,110.247 
		320.385,107.465 312.112,98.44 306.171,89.416 296.244,80.391 295.342,78.662 295.417,74.601 295.041,73.849 293.011,72.871 
		289.777,73.172 288.574,72.721 288.047,72.044 287.596,69.111 286.844,68.284 285.716,67.908 284.212,68.359 282.482,68.209 
		279.624,65.877 277.669,64.975 269.096,63.395 268.194,63.245 260.748,62.192 253.228,60.162 241.346,53.694 230.065,48.731 
		220.815,48.43 210.964,48.806 210.362,48.505 209.836,47.302 	"/>
	<g id="fights_00000081614842730058854690000006274134120437993877_">
		<g id="kallang-basin_00000176005469868634637900000012980897109190725528_" transform="translate(359.00000, 346.00000)">
			<path fill="#333333" d="M9.2-132.236l2.875,1.95c0.2,0.133,0.3,0.308,0.3,0.525c0,0.217-0.1,0.392-0.3,0.525l-2.875,1.95
				l1.525,3.075c0.117,0.233,0.108,0.442-0.025,0.625c-0.133,0.183-0.3,0.292-0.5,0.325l-3.475,0.25l-0.225,3.45
				c-0.017,0.2-0.117,0.367-0.3,0.5c-0.183,0.133-0.392,0.15-0.625,0.05l-3.1-1.55l-1.95,2.9c-0.117,0.183-0.292,0.275-0.525,0.275
				s-0.408-0.092-0.525-0.275l-1.95-2.9l-3.075,1.55c-0.233,0.1-0.442,0.083-0.625-0.05c-0.183-0.133-0.292-0.3-0.325-0.5
				l-0.25-3.475l-3.425-0.225c-0.217-0.017-0.4-0.125-0.55-0.325c-0.15-0.2-0.158-0.408-0.025-0.625l1.575-3.075l-2.925-1.95
				c-0.183-0.117-0.275-0.292-0.275-0.525c0-0.233,0.092-0.408,0.275-0.525l2.925-1.95l-1.575-3.1c-0.117-0.2-0.108-0.4,0.025-0.6
				c0.133-0.2,0.317-0.308,0.55-0.325l3.425-0.225l0.25-3.475c0.017-0.2,0.125-0.367,0.325-0.5c0.2-0.133,0.408-0.142,0.625-0.025
				l3.075,1.525l1.95-2.9c0.117-0.183,0.292-0.275,0.525-0.275s0.408,0.092,0.525,0.275l1.95,2.9l3.1-1.525
				c0.217-0.117,0.425-0.108,0.625,0.025s0.3,0.3,0.3,0.5l0.225,3.475l3.475,0.225c0.2,0.017,0.367,0.117,0.5,0.3
				c0.133,0.183,0.142,0.392,0.025,0.625L9.2-132.236z"/>
			<path fill="#FFFFFF" d="M-1.213-132.167c-0.219,0.292-0.324,0.682-0.314,1.169h-1.818c0.018-0.492,0.102-0.959,0.252-1.401
				c0.16-0.388,0.41-0.745,0.752-1.073c0.256-0.232,0.559-0.41,0.91-0.533c0.351-0.123,0.781-0.185,1.291-0.185
				c0.948,0,1.713,0.245,2.294,0.735c0.581,0.489,0.872,1.146,0.872,1.972c0,0.583-0.174,1.075-0.52,1.477
				c-0.219,0.251-0.447,0.422-0.684,0.513c0.178,0,0.433,0.152,0.766,0.458c0.496,0.46,0.744,1.089,0.744,1.887
				c0,0.839-0.29,1.575-0.871,2.212c-0.581,0.635-1.441,0.953-2.58,0.953c-1.404,0-2.379-0.458-2.926-1.374
				c-0.287-0.487-0.447-1.126-0.479-1.914h1.914c0,0.396,0.063,0.725,0.191,0.984c0.236,0.479,0.667,0.718,1.291,0.718
				c0.383,0,0.717-0.131,1.002-0.393c0.285-0.263,0.428-0.64,0.428-1.132c0-0.651-0.265-1.087-0.793-1.306
				c-0.301-0.123-0.775-0.185-1.422-0.185v-1.395c0.633-0.009,1.075-0.07,1.326-0.185c0.433-0.191,0.648-0.579,0.648-1.162
				c0-0.378-0.109-0.686-0.331-0.923s-0.532-0.355-0.933-0.355C-0.662-132.604-0.999-132.459-1.213-132.167z"/>
		</g>
		<g id="braddell_00000153670936008494262370000005660399490573803966_" transform="translate(324.00000, 258.00000)">
			<path fill="#333333" d="M9.2-132.236l2.875,1.95c0.2,0.133,0.3,0.308,0.3,0.525c0,0.217-0.1,0.392-0.3,0.525l-2.875,1.95
				l1.525,3.075c0.117,0.233,0.108,0.442-0.025,0.625c-0.133,0.183-0.3,0.292-0.5,0.325l-3.475,0.25l-0.225,3.45
				c-0.017,0.2-0.117,0.367-0.3,0.5c-0.183,0.133-0.392,0.15-0.625,0.05l-3.1-1.55l-1.95,2.9c-0.117,0.183-0.292,0.275-0.525,0.275
				s-0.408-0.092-0.525-0.275l-1.95-2.9l-3.075,1.55c-0.233,0.1-0.442,0.083-0.625-0.05c-0.183-0.133-0.292-0.3-0.325-0.5
				l-0.25-3.475l-3.425-0.225c-0.217-0.017-0.4-0.125-0.55-0.325c-0.15-0.2-0.158-0.408-0.025-0.625l1.575-3.075l-2.925-1.95
				c-0.183-0.117-0.275-0.292-0.275-0.525c0-0.233,0.092-0.408,0.275-0.525l2.925-1.95l-1.575-3.1c-0.117-0.2-0.108-0.4,0.025-0.6
				c0.133-0.2,0.317-0.308,0.55-0.325l3.425-0.225l0.25-3.475c0.017-0.2,0.125-0.367,0.325-0.5c0.2-0.133,0.408-0.142,0.625-0.025
				l3.075,1.525l1.95-2.9c0.117-0.183,0.292-0.275,0.525-0.275s0.408,0.092,0.525,0.275l1.95,2.9l3.1-1.525
				c0.217-0.117,0.425-0.108,0.625,0.025s0.3,0.3,0.3,0.5l0.225,3.475l3.475,0.225c0.2,0.017,0.367,0.117,0.5,0.3
				c0.133,0.183,0.142,0.392,0.025,0.625L9.2-132.236z"/>
			<path fill="#FFFFFF" d="M3.428-127.887v1.524H2.307v2.133H0.4v-2.133h-3.924v-1.702l3.643-6.016h2.188v6.193H3.428z
				 M-2.082-127.887H0.4v-4.279L-2.082-127.887z"/>
		</g>
		<g id="bishan-park_00000013189657649225862050000009571622067827446445_" transform="translate(293.00000, 203.00000)">
			<path fill="#333333" d="M9.2-132.236l2.875,1.95c0.2,0.133,0.3,0.308,0.3,0.525c0,0.217-0.1,0.392-0.3,0.525l-2.875,1.95
				l1.525,3.075c0.117,0.233,0.108,0.442-0.025,0.625c-0.133,0.183-0.3,0.292-0.5,0.325l-3.475,0.25l-0.225,3.45
				c-0.017,0.2-0.117,0.367-0.3,0.5c-0.183,0.133-0.392,0.15-0.625,0.05l-3.1-1.55l-1.95,2.9c-0.117,0.183-0.292,0.275-0.525,0.275
				s-0.408-0.092-0.525-0.275l-1.95-2.9l-3.075,1.55c-0.233,0.1-0.442,0.083-0.625-0.05c-0.183-0.133-0.292-0.3-0.325-0.5
				l-0.25-3.475l-3.425-0.225c-0.217-0.017-0.4-0.125-0.55-0.325c-0.15-0.2-0.158-0.408-0.025-0.625l1.575-3.075l-2.925-1.95
				c-0.183-0.117-0.275-0.292-0.275-0.525c0-0.233,0.092-0.408,0.275-0.525l2.925-1.95l-1.575-3.1c-0.117-0.2-0.108-0.4,0.025-0.6
				c0.133-0.2,0.317-0.308,0.55-0.325l3.425-0.225l0.25-3.475c0.017-0.2,0.125-0.367,0.325-0.5c0.2-0.133,0.408-0.142,0.625-0.025
				l3.075,1.525l1.95-2.9c0.117-0.183,0.292-0.275,0.525-0.275s0.408,0.092,0.525,0.275l1.95,2.9l3.1-1.525
				c0.217-0.117,0.425-0.108,0.625,0.025s0.3,0.3,0.3,0.5l0.225,3.475l3.475,0.225c0.2,0.017,0.367,0.117,0.5,0.3
				c0.133,0.183,0.142,0.392,0.025,0.625L9.2-132.236z"/>
			<path fill="#FFFFFF" d="M-0.161-129.152c-0.237,0-0.442,0.029-0.615,0.089c-0.305,0.109-0.536,0.312-0.69,0.608l-1.75-0.082
				l0.697-5.476h5.462v1.654h-4.054l-0.355,2.167c0.301-0.196,0.536-0.326,0.704-0.39c0.283-0.104,0.626-0.157,1.032-0.157
				c0.82,0,1.536,0.275,2.146,0.827s0.916,1.354,0.916,2.406c0,0.916-0.294,1.734-0.882,2.454s-1.467,1.08-2.639,1.08
				c-0.943,0-1.718-0.253-2.324-0.759s-0.943-1.224-1.012-2.153h1.941c0.078,0.424,0.226,0.751,0.444,0.98
				c0.219,0.23,0.538,0.346,0.957,0.346c0.483,0,0.851-0.17,1.104-0.51c0.253-0.339,0.379-0.767,0.379-1.281
				c0-0.506-0.119-0.934-0.355-1.281C0.71-128.978,0.341-129.152-0.161-129.152z"/>
		</g>
		<g id="gbtb_00000121995864292689205400000007988587776630849708_" transform="translate(340.00000, 477.00000)">
			<path fill="#333333" d="M9.2-132.236l2.875,1.95c0.2,0.133,0.3,0.308,0.3,0.525c0,0.217-0.1,0.392-0.3,0.525l-2.875,1.95
				l1.525,3.075c0.117,0.233,0.108,0.442-0.025,0.625c-0.133,0.183-0.3,0.292-0.5,0.325l-3.475,0.25l-0.225,3.45
				c-0.017,0.2-0.117,0.367-0.3,0.5c-0.183,0.133-0.392,0.15-0.625,0.05l-3.1-1.55l-1.95,2.9c-0.117,0.183-0.292,0.275-0.525,0.275
				s-0.408-0.092-0.525-0.275l-1.95-2.9l-3.075,1.55c-0.233,0.1-0.442,0.083-0.625-0.05c-0.183-0.133-0.292-0.3-0.325-0.5
				l-0.25-3.475l-3.425-0.225c-0.217-0.017-0.4-0.125-0.55-0.325c-0.15-0.2-0.158-0.408-0.025-0.625l1.575-3.075l-2.925-1.95
				c-0.183-0.117-0.275-0.292-0.275-0.525c0-0.233,0.092-0.408,0.275-0.525l2.925-1.95l-1.575-3.1c-0.117-0.2-0.108-0.4,0.025-0.6
				c0.133-0.2,0.317-0.308,0.55-0.325l3.425-0.225l0.25-3.475c0.017-0.2,0.125-0.367,0.325-0.5c0.2-0.133,0.408-0.142,0.625-0.025
				l3.075,1.525l1.95-2.9c0.117-0.183,0.292-0.275,0.525-0.275s0.408,0.092,0.525,0.275l1.95,2.9l3.1-1.525
				c0.217-0.117,0.425-0.108,0.625,0.025s0.3,0.3,0.3,0.5l0.225,3.475l3.475,0.225c0.2,0.017,0.367,0.117,0.5,0.3
				c0.133,0.183,0.142,0.392,0.025,0.625L9.2-132.236z"/>
			<path fill="#FFFFFF" d="M0.387-130.663c0.879,0,1.6,0.299,2.163,0.896s0.845,1.36,0.845,2.29c0,0.925-0.276,1.741-0.828,2.447
				c-0.551,0.706-1.408,1.06-2.57,1.06c-1.248,0-2.169-0.521-2.762-1.565c-0.46-0.815-0.689-1.868-0.689-3.158
				c0-0.757,0.031-1.372,0.096-1.846c0.113-0.843,0.334-1.545,0.662-2.105c0.283-0.479,0.653-0.863,1.111-1.155
				s1.006-0.438,1.645-0.438c0.92,0,1.654,0.236,2.201,0.707c0.547,0.473,0.854,1.1,0.922,1.884H1.24
				c0-0.159-0.061-0.335-0.184-0.526c-0.21-0.31-0.527-0.465-0.951-0.465c-0.633,0-1.084,0.355-1.354,1.066
				c-0.146,0.392-0.246,0.971-0.301,1.736c0.242-0.287,0.522-0.497,0.842-0.629C-0.389-130.596-0.023-130.663,0.387-130.663z
				 M-0.926-128.803c-0.383,0.296-0.574,0.774-0.574,1.436c0,0.533,0.143,0.969,0.43,1.306s0.652,0.506,1.094,0.506
				c0.434,0,0.773-0.163,1.022-0.488c0.249-0.326,0.372-0.749,0.372-1.269c0-0.579-0.141-1.022-0.424-1.329
				c-0.282-0.309-0.629-0.462-1.039-0.462C-0.377-129.104-0.671-129.003-0.926-128.803z"/>
		</g>
		<g id="potong-pasir_00000140704636339503511630000017907602329119230872_" transform="translate(350.00000, 294.00000)">
			<path fill="#333333" d="M9.2-132.236l2.875,1.95c0.2,0.133,0.3,0.308,0.3,0.525c0,0.217-0.1,0.392-0.3,0.525l-2.875,1.95
				l1.525,3.075c0.117,0.233,0.108,0.442-0.025,0.625c-0.133,0.183-0.3,0.292-0.5,0.325l-3.475,0.25l-0.225,3.45
				c-0.017,0.2-0.117,0.367-0.3,0.5c-0.183,0.133-0.392,0.15-0.625,0.05l-3.1-1.55l-1.95,2.9c-0.117,0.183-0.292,0.275-0.525,0.275
				s-0.408-0.092-0.525-0.275l-1.95-2.9l-3.075,1.55c-0.233,0.1-0.442,0.083-0.625-0.05c-0.183-0.133-0.292-0.3-0.325-0.5
				l-0.25-3.475l-3.425-0.225c-0.217-0.017-0.4-0.125-0.55-0.325c-0.15-0.2-0.158-0.408-0.025-0.625l1.575-3.075l-2.925-1.95
				c-0.183-0.117-0.275-0.292-0.275-0.525c0-0.233,0.092-0.408,0.275-0.525l2.925-1.95l-1.575-3.1c-0.117-0.2-0.108-0.4,0.025-0.6
				c0.133-0.2,0.317-0.308,0.55-0.325l3.425-0.225l0.25-3.475c0.017-0.2,0.125-0.367,0.325-0.5c0.2-0.133,0.408-0.142,0.625-0.025
				l3.075,1.525l1.95-2.9c0.117-0.183,0.292-0.275,0.525-0.275s0.408,0.092,0.525,0.275l1.95,2.9l3.1-1.525
				c0.217-0.117,0.425-0.108,0.625,0.025s0.3,0.3,0.3,0.5l0.225,3.475l3.475,0.225c0.2,0.017,0.367,0.117,0.5,0.3
				c0.133,0.183,0.142,0.392,0.025,0.625L9.2-132.236z"/>
			<path fill="#FFFFFF" d="M0.975-132.126c-0.232-0.278-0.565-0.417-0.998-0.417c-0.593,0-0.996,0.221-1.211,0.663
				c-0.123,0.255-0.195,0.661-0.219,1.217h-1.893c0.031-0.843,0.184-1.524,0.457-2.044c0.52-0.989,1.443-1.483,2.77-1.483
				c1.048,0,1.882,0.29,2.502,0.872c0.619,0.58,0.93,1.35,0.93,2.307c0,0.733-0.219,1.386-0.656,1.955
				c-0.287,0.378-0.76,0.8-1.416,1.265l-0.779,0.554c-0.487,0.347-0.82,0.597-1.001,0.752s-0.331,0.335-0.454,0.54h4.326v1.716
				h-6.787c0.018-0.711,0.17-1.36,0.457-1.948c0.278-0.661,0.935-1.36,1.969-2.099c0.898-0.643,1.479-1.103,1.744-1.381
				c0.405-0.433,0.607-0.907,0.607-1.422C1.322-131.499,1.207-131.847,0.975-132.126z"/>
		</g>
		<g id="marina-reservoir_00000150080700265563812900000001111987796832199605_" transform="translate(352.00000, 447.00000)">
			<path fill="#333333" d="M9.2-132.236l2.875,1.95c0.2,0.133,0.3,0.308,0.3,0.525c0,0.217-0.1,0.392-0.3,0.525l-2.875,1.95
				l1.525,3.075c0.117,0.233,0.108,0.442-0.025,0.625c-0.133,0.183-0.3,0.292-0.5,0.325l-3.475,0.25l-0.225,3.45
				c-0.017,0.2-0.117,0.367-0.3,0.5c-0.183,0.133-0.392,0.15-0.625,0.05l-3.1-1.55l-1.95,2.9c-0.117,0.183-0.292,0.275-0.525,0.275
				s-0.408-0.092-0.525-0.275l-1.95-2.9l-3.075,1.55c-0.233,0.1-0.442,0.083-0.625-0.05c-0.183-0.133-0.292-0.3-0.325-0.5
				l-0.25-3.475l-3.425-0.225c-0.217-0.017-0.4-0.125-0.55-0.325c-0.15-0.2-0.158-0.408-0.025-0.625l1.575-3.075l-2.925-1.95
				c-0.183-0.117-0.275-0.292-0.275-0.525c0-0.233,0.092-0.408,0.275-0.525l2.925-1.95l-1.575-3.1c-0.117-0.2-0.108-0.4,0.025-0.6
				c0.133-0.2,0.317-0.308,0.55-0.325l3.425-0.225l0.25-3.475c0.017-0.2,0.125-0.367,0.325-0.5c0.2-0.133,0.408-0.142,0.625-0.025
				l3.075,1.525l1.95-2.9c0.117-0.183,0.292-0.275,0.525-0.275s0.408,0.092,0.525,0.275l1.95,2.9l3.1-1.525
				c0.217-0.117,0.425-0.108,0.625,0.025s0.3,0.3,0.3,0.5l0.225,3.475l3.475,0.225c0.2,0.017,0.367,0.117,0.5,0.3
				c0.133,0.183,0.142,0.392,0.025,0.625L9.2-132.236z"/>
			<path fill="#FFFFFF" d="M1.404-124.23h-1.996v-6.836h-2.33v-1.326c0.615-0.027,1.045-0.068,1.291-0.123
				c0.393-0.087,0.711-0.26,0.957-0.52c0.169-0.178,0.297-0.415,0.383-0.711c0.051-0.178,0.076-0.31,0.076-0.396h1.619V-124.23z"/>
		</g>
	</g>
	<g id="otters_00000105408011486059376720000003713195363963753907_">
		<g id="bishan-otters_00000152981038441420500680000002990806033252874153_" transform="translate(361.00000, 467.00000)">
			<path id="bishan-otters-icon_00000135680823110356023520000014970563616138826139_" fill="#15607A" d="M12-129.761
				c0,6.627-5.373,12-12,12s-12-5.373-12-12c0-6.627,5.373-12,12-12S12-136.389,12-129.761z"/>
			<path id="B_00000060009443540900609770000007421620112707918761_" fill="#FFFFFF" d="M0.611-124.283h-4.566v-10.076h4.895
				c1.235,0.019,2.11,0.376,2.625,1.073c0.311,0.429,0.465,0.941,0.465,1.538c0,0.615-0.154,1.109-0.465,1.483
				c-0.173,0.21-0.428,0.401-0.766,0.574c0.516,0.187,0.904,0.483,1.166,0.889s0.393,0.897,0.393,1.477
				c0,0.597-0.15,1.133-0.451,1.606c-0.191,0.314-0.43,0.579-0.717,0.793c-0.324,0.246-0.705,0.415-1.146,0.506
				S1.127-124.283,0.611-124.283z M1.609-130.64c0.273-0.164,0.41-0.458,0.41-0.882c0-0.47-0.182-0.779-0.547-0.93
				c-0.314-0.104-0.715-0.157-1.203-0.157h-2.215v2.222h2.475C0.972-130.387,1.332-130.471,1.609-130.64z M0.564-128.719h-2.51
				v2.687h2.475c0.442,0,0.787-0.06,1.033-0.178c0.446-0.219,0.67-0.638,0.67-1.258c0-0.524-0.217-0.884-0.65-1.08
				C1.341-128.658,1.002-128.714,0.564-128.719z"/>
		</g>
		<g id="marina-otters_00000076603246880743467930000003682186449748375225_" transform="translate(194.00000, 165.00000)">
			<path id="_marina-otters-icon_00000066514848071162017080000016149311859620998548_" fill="#F2A748" d="M12-129.761
				c0,6.627-5.373,12-12,12s-12-5.373-12-12c0-6.627,5.373-12,12-12S12-136.389,12-129.761z"/>
			<path id="M_00000011712662985528507050000009303315582818507405_" fill="#333333" d="M-2.837-124.283h-1.962v-10.076h3.062
				l1.832,7.923l1.818-7.923h3.028v10.076H2.98v-6.815c0-0.196,0.002-0.471,0.007-0.823c0.004-0.354,0.007-0.626,0.007-0.817
				l-1.907,8.456h-2.044l-1.894-8.456c0,0.191,0.002,0.464,0.007,0.817c0.004,0.353,0.007,0.627,0.007,0.823V-124.283z"/>
		</g>
		<g id="zouk-otters_00000182502405125275094650000016791499138908566661_" transform="translate(178.00000, 364.00000)">
			<path id="zouk-otters-icon_00000040567640508468996830000000458751440096011162_" fill="#C71E1D" d="M12-129.761
				c0,6.627-5.373,12-12,12s-12-5.373-12-12c0-6.627,5.373-12,12-12S12-136.389,12-129.761z"/>
			<path id="Z_00000070079475352067408840000016714970929577979795_" fill="#FFFFFF" d="M3.92-124.283H-3.92v-1.777l5.202-6.515
				h-5.072v-1.784h7.697v1.688l-5.271,6.61H3.92V-124.283z"/>
		</g>
		<g id="sbg-otters_00000072251484297711763010000010813947782309036456_" transform="translate(175.00000, 380.00000)">
			<path id="sbg-otters-icon_00000075143256498700038580000003303250139950071716_" fill="#C71E1D" d="M12-129.761
				c0,6.627-5.373,12-12,12s-12-5.373-12-12c0-6.627,5.373-12,12-12S12-136.389,12-129.761z"/>
			<path id="S_00000179609867182133195780000000626649044311167902_" fill="#FFFFFF" d="M0.055-125.739
				c0.497,0,0.9-0.055,1.21-0.164c0.588-0.21,0.882-0.6,0.882-1.169c0-0.333-0.146-0.59-0.438-0.772
				c-0.292-0.178-0.75-0.335-1.374-0.472l-1.066-0.239c-1.048-0.237-1.773-0.494-2.174-0.772c-0.679-0.465-1.019-1.191-1.019-2.181
				c0-0.902,0.328-1.652,0.984-2.249s1.62-0.896,2.892-0.896c1.062,0,1.968,0.281,2.717,0.845c0.75,0.562,1.143,1.379,1.179,2.45
				H1.825c-0.037-0.606-0.301-1.037-0.793-1.292c-0.328-0.169-0.736-0.253-1.224-0.253c-0.542,0-0.975,0.109-1.299,0.328
				s-0.485,0.524-0.485,0.916c0,0.36,0.16,0.629,0.479,0.807c0.205,0.118,0.643,0.258,1.312,0.417l1.736,0.417
				c0.761,0.183,1.335,0.426,1.723,0.731c0.602,0.474,0.902,1.16,0.902,2.058c0,0.921-0.352,1.685-1.056,2.294
				c-0.704,0.607-1.699,0.912-2.984,0.912c-1.312,0-2.345-0.3-3.097-0.898c-0.752-0.6-1.128-1.424-1.128-2.472h2.01
				c0.064,0.46,0.189,0.805,0.376,1.032C-1.36-125.946-0.775-125.739,0.055-125.739z"/>
		</g>
	</g>
</g>
<style>
#g-220727-the-otter-turf-wars-rgb-Artboard_1-interactions-img rect, #g-220727-the-otter-turf-wars-rgb-Artboard_1-interactions-img circle, #g-220727-the-otter-turf-wars-rgb-Artboard_1-interactions-img path, #g-220727-the-otter-turf-wars-rgb-Artboard_1-interactions-img line, #g-220727-the-otter-turf-wars-rgb-Artboard_1-interactions-img polyline, #g-220727-the-otter-turf-wars-rgb-Artboard_1-interactions-img polygon { vector-effect: non-scaling-stroke; }
</style>
</svg>

